<?xml version="1.0" standalone="no"?>
<!DOCTYPE svg PUBLIC "-//W3C//DTD SVG 20010904//EN"
 "http://www.w3.org/TR/2001/REC-SVG-20010904/DTD/svg10.dtd">
<svg version="1.0" xmlns="http://www.w3.org/2000/svg"
 width="728.000000pt" height="109.000000pt" viewBox="0 0 728.000000 109.000000"
 preserveAspectRatio="xMidYMid meet">
<metadata>
Created by potrace 1.15, written by Peter Selinger 2001-2017
</metadata>
<g transform="translate(0.000000,109.000000) scale(0.100000,-0.100000)"
fill="#000000" stroke="none">
<path d="M2390 891 c-69 -21 -130 -73 -151 -129 -8 -21 -13 -23 -37 -16 -20 6
-552 11 -797 6 -11 0 -121 2 -245 4 -213 5 -225 4 -251 -15 -28 -21 -28 -21
-71 -1 -48 22 -168 27 -226 11 -30 -9 -34 -8 -42 15 -6 14 -10 40 -10 58 0 63
-12 66 -242 66 -186 0 -206 -2 -221 -18 -15 -16 -17 -53 -17 -319 0 -357 -9
-333 121 -333 117 0 123 5 129 117 l5 88 57 3 56 3 16 -53 c18 -63 92 -142
146 -158 62 -18 176 -12 230 11 45 19 50 20 72 5 16 -11 45 -16 103 -16 117 0
119 2 125 147 5 113 5 115 11 48 3 -39 13 -84 22 -101 24 -46 77 -93 111 -99
17 -3 141 -1 276 5 135 5 254 9 265 8 17 -1 163 -1 223 0 9 1 57 -1 106 -4 80
-5 92 -3 117 15 l29 21 42 -22 c58 -29 202 -37 279 -15 29 9 56 14 61 11 4 -3
8 -32 8 -65 0 -86 16 -99 123 -99 103 0 117 8 125 80 l7 55 58 6 c45 5 67 14
98 39 45 35 54 34 112 -12 23 -18 43 -23 120 -26 80 -4 101 -1 144 18 48 20
53 21 75 6 16 -11 45 -16 103 -16 119 0 119 0 125 157 l5 128 25 0 c25 0 25
-1 31 -103 l5 -103 42 -42 42 -42 93 2 c50 1 108 2 127 3 19 1 77 -2 128 -6
107 -8 160 7 207 56 35 37 53 38 61 5 10 -42 40 -55 125 -55 56 0 80 4 89 15
16 19 34 19 50 0 15 -18 150 -21 181 -5 10 6 26 27 34 47 l15 35 41 -37 c57
-52 96 -65 187 -65 64 0 87 5 130 26 l52 26 32 -24 c36 -25 30 -25 375 -19
156 2 164 3 192 27 36 30 36 30 84 -3 34 -24 51 -28 131 -31 79 -4 100 -1 143
18 48 20 53 21 75 6 16 -12 46 -16 105 -16 98 0 123 16 123 76 0 42 20 42 35
0 6 -19 6 -33 -3 -46 -7 -11 -12 -37 -12 -58 0 -44 41 -91 102 -116 50 -21
186 -21 236 -1 51 22 120 92 132 135 5 19 10 142 10 273 0 305 19 280 -208
273 -205 -6 -169 -6 -346 0 -139 5 -151 4 -177 -15 -28 -21 -28 -21 -71 -1
-50 23 -173 27 -229 9 -34 -12 -112 -78 -131 -112 -5 -10 -15 -51 -22 -90
l-12 -72 -64 0 -65 0 -5 86 c-5 74 -9 91 -32 121 -43 56 -99 78 -199 78 -82 0
-129 -14 -179 -51 -13 -9 -24 -6 -54 15 -49 33 -88 40 -183 32 -43 -4 -93 -6
-110 -6 -18 0 -170 1 -338 1 -168 0 -320 -1 -337 -1 -18 0 -69 2 -112 6 -49 4
-100 2 -132 -5 -66 -15 -114 4 -114 44 0 49 -31 65 -123 65 -95 0 -115 -10
-126 -60 l-7 -35 -136 -5 c-111 -4 -140 -8 -155 -23 -19 -17 -22 -17 -64 3
-31 14 -66 20 -120 20 -85 0 -131 -12 -172 -47 -35 -29 -49 -29 -73 -2 -35 40
-76 49 -214 49 l-130 0 -58 58 c-38 39 -71 62 -98 70 -45 13 -184 15 -224 3z
m213 -22 c43 -12 101 -59 123 -100 l15 -29 140 0 c159 0 190 -8 235 -64 l30
-36 35 36 c46 49 85 64 169 64 79 0 131 -17 173 -57 l27 -27 0 30 c0 50 11 54
167 54 l143 0 0 38 c0 55 12 62 105 62 92 0 105 -7 105 -61 0 -34 3 -38 28
-41 16 -2 31 -12 36 -24 l10 -22 29 22 c23 17 46 22 115 24 76 3 93 0 133 -20
46 -24 46 -24 55 -3 8 17 20 20 87 23 83 3 102 -4 117 -43 l9 -20 0 20 c1 36
21 45 97 45 71 0 72 0 88 -32 8 -18 16 -26 16 -17 0 37 34 50 116 47 68 -3 80
-6 88 -23 9 -21 9 -21 54 2 35 18 62 23 118 23 85 0 109 -8 157 -49 l34 -31
19 22 c34 38 93 58 174 58 90 0 152 -26 187 -79 20 -30 23 -47 23 -139 0 -101
1 -104 18 -89 24 22 128 23 151 3 14 -13 16 -10 12 32 -6 79 16 149 63 200 52
57 88 72 176 72 79 0 131 -17 173 -57 l27 -27 0 30 c0 50 12 54 162 54 124 0
139 -2 150 -19 11 -18 12 -18 42 0 27 16 52 19 181 19 104 0 155 -4 163 -12
15 -15 17 -456 2 -508 -13 -45 -85 -118 -130 -130 -54 -15 -166 -12 -208 6
-86 36 -116 101 -71 158 19 24 20 29 6 44 -34 39 -47 82 -47 157 0 68 -2 75
-20 75 -19 0 -20 -7 -20 -133 0 -90 -4 -137 -12 -145 -16 -16 -170 -16 -186 0
-7 7 -12 23 -12 37 l0 25 -27 -27 c-42 -40 -94 -57 -172 -57 -87 0 -115 10
-168 62 l-42 41 -7 -27 c-10 -42 -49 -66 -108 -66 -28 0 -58 4 -66 10 -8 5
-19 5 -25 1 -5 -5 -78 -12 -160 -15 -163 -8 -191 -3 -236 40 -24 23 -27 24
-40 8 -59 -72 -251 -72 -327 -1 -27 25 -62 88 -63 114 0 10 -10 -16 -21 -57
-11 -41 -24 -80 -30 -87 -7 -8 -37 -13 -83 -13 -81 0 -97 10 -110 70 l-8 35
-13 -39 c-22 -62 -29 -66 -110 -66 -86 0 -94 7 -115 104 -12 56 -14 58 -21 30
-12 -46 -73 -110 -122 -129 -63 -24 -194 -18 -232 10 l-27 21 -23 -23 c-20
-20 -33 -23 -99 -23 -74 0 -77 1 -118 39 l-42 40 -3 113 -4 113 -49 -3 -49 -4
0 -132 c0 -89 -4 -136 -12 -144 -16 -16 -170 -16 -186 0 -7 7 -12 23 -12 37
l0 25 -27 -27 c-42 -40 -94 -57 -173 -57 -84 0 -124 15 -170 63 l-34 37 -30
-36 c-37 -45 -80 -64 -146 -64 l-50 0 0 -58 c0 -32 -5 -63 -12 -70 -16 -16
-170 -16 -186 0 -8 8 -12 46 -12 106 l0 94 -30 -26 c-40 -34 -89 -46 -181 -46
-91 0 -152 19 -196 62 l-33 32 0 -30 c0 -17 -5 -35 -12 -42 -16 -16 -170 -16
-186 0 -8 8 -12 57 -12 156 0 93 -4 141 -10 137 -6 -4 -10 -63 -10 -144 0 -93
-4 -141 -12 -149 -16 -16 -170 -16 -186 0 -8 8 -12 57 -12 155 0 89 -4 143
-10 143 -6 0 -10 -55 -10 -144 0 -106 -3 -146 -13 -154 -8 -7 -81 -12 -188
-13 -350 -5 -331 -6 -365 18 -49 35 -64 78 -64 182 l0 91 -30 0 -30 0 0 -133
c0 -90 -4 -137 -12 -145 -16 -16 -170 -16 -186 0 -7 7 -12 23 -12 36 l0 24
-35 -31 c-47 -41 -97 -54 -187 -50 -63 4 -82 9 -117 33 -45 31 -91 99 -91 134
0 48 -8 52 -91 52 l-79 0 0 -93 c0 -59 -4 -97 -12 -105 -16 -16 -170 -16 -186
0 -17 17 -17 589 0 606 17 17 409 17 426 0 18 -18 15 -129 -4 -156 -14 -20
-23 -22 -120 -22 -97 0 -104 -1 -104 -20 0 -19 7 -20 98 -20 l98 0 35 36 c46
49 85 64 169 64 79 0 131 -17 173 -57 l27 -27 0 30 c0 17 5 35 12 42 17 17
429 17 446 0 8 -8 12 -55 12 -144 0 -73 3 -139 6 -148 16 -41 24 7 24 138 0
107 3 146 13 155 9 7 93 9 273 6 142 -2 273 -3 289 -3 190 6 192 5 229 -31
l36 -35 0 32 c0 71 55 140 132 169 42 15 171 16 221 2z"/>
<path d="M2405 839 c-84 -31 -131 -99 -122 -175 8 -79 59 -125 190 -173 76
-28 99 -50 81 -78 -25 -40 -134 -19 -134 26 0 31 -25 42 -87 39 -58 -3 -58 -3
-61 -37 -10 -107 112 -191 260 -179 114 9 178 69 178 167 0 94 -49 148 -174
191 -65 22 -106 45 -106 60 0 19 33 40 63 40 40 0 50 -7 68 -45 14 -29 17 -30
79 -30 l65 0 3 40 c3 51 -23 95 -78 131 -34 23 -54 28 -118 30 -42 2 -90 -1
-107 -7z"/>
<path d="M135 828 c-3 -8 -4 -135 -3 -283 l3 -270 70 0 70 0 3 102 3 102 102
3 102 3 0 60 0 60 -102 3 -103 3 0 49 0 49 113 3 112 3 0 60 0 60 -183 3
c-142 2 -184 0 -187 -10z"/>
<path d="M3897 804 c-4 -4 -7 -27 -7 -51 0 -47 0 -47 -92 -43 -20 1 -45 -3
-56 -9 -13 -7 -22 -7 -29 0 -6 6 -37 9 -69 7 l-59 -3 0 -215 0 -215 70 0 70 0
5 140 c5 138 5 139 30 146 14 4 35 4 48 2 17 -4 25 0 28 14 4 15 12 19 29 15
23 -4 24 -7 27 -133 l3 -129 32 -31 c26 -26 42 -33 86 -37 76 -6 97 7 97 63
l0 45 38 -41 c45 -51 85 -69 155 -69 69 0 133 32 171 87 23 33 30 55 34 111
10 150 -69 251 -198 252 -73 0 -114 -17 -158 -64 -57 -62 -74 -152 -46 -246 3
-13 -3 -15 -31 -12 l-35 4 0 99 c0 98 0 99 24 99 34 0 48 22 44 72 -3 40 -5
43 -35 46 -30 3 -32 5 -35 50 l-3 47 -65 3 c-36 2 -69 0 -73 -4z m447 -246
c10 -13 16 -43 16 -73 0 -63 -20 -95 -60 -95 -53 0 -76 81 -46 155 12 29 20
35 45 35 20 0 35 -8 45 -22z"/>
<path d="M634 699 c-50 -14 -110 -87 -123 -148 -14 -64 -14 -68 0 -132 13 -59
65 -124 116 -146 87 -36 204 -2 257 74 53 76 47 213 -12 292 -45 61 -147 87
-238 60z m120 -141 c10 -13 16 -43 16 -73 0 -63 -20 -95 -60 -95 -53 0 -76 81
-46 155 12 29 20 35 45 35 20 0 35 -8 45 -22z"/>
<path d="M944 697 c-2 -7 -3 -105 -2 -217 l3 -205 70 0 70 0 3 135 c1 74 6
138 11 143 5 5 28 9 52 10 l44 2 0 70 0 70 -37 3 c-20 2 -46 -2 -57 -7 -13 -7
-22 -8 -26 -1 -9 15 -125 13 -131 -3z"/>
<path d="M1217 704 c-4 -4 -7 -82 -7 -173 0 -142 3 -171 18 -200 28 -53 74
-73 147 -67 33 3 94 7 135 8 l75 3 0 215 0 215 -70 0 -70 0 -3 -150 c-2 -104
-6 -152 -15 -157 -19 -12 -55 -9 -64 5 -4 6 -10 77 -13 157 l-5 145 -60 3
c-34 2 -64 0 -68 -4z"/>
<path d="M1634 697 c-2 -7 -3 -105 -2 -217 l3 -205 70 0 70 0 5 150 5 150 35
0 35 0 5 -150 5 -150 70 0 70 0 3 139 c2 85 7 145 14 153 6 8 23 13 37 11 l26
-3 5 -150 5 -150 70 0 70 0 3 148 c3 168 -5 211 -48 252 -40 38 -121 47 -177
18 -37 -19 -39 -19 -68 -1 -33 20 -99 24 -141 8 -19 -8 -30 -8 -38 0 -15 15
-126 13 -132 -3z"/>
<path d="M2745 697 c-3 -7 -4 -138 -3 -292 l3 -280 70 0 70 0 3 70 3 70 69 0
c54 0 75 4 97 21 30 22 68 89 79 139 6 29 7 29 19 -18 14 -54 62 -112 112
-133 86 -37 204 -4 257 73 53 76 47 213 -12 292 -45 61 -142 86 -232 61 -51
-14 -110 -78 -125 -137 -12 -47 -13 -47 -19 -18 -11 49 -49 117 -78 138 -32
24 -125 34 -156 18 -14 -7 -23 -8 -27 -1 -9 15 -125 13 -130 -3z m232 -147
c16 -32 16 -98 0 -130 -10 -19 -20 -25 -47 -25 l-35 0 -3 84 c-3 91 3 103 48
99 15 -2 30 -13 37 -28z m417 8 c10 -13 16 -43 16 -73 0 -63 -20 -95 -60 -95
-53 0 -76 81 -46 155 12 29 20 35 45 35 20 0 35 -8 45 -22z"/>
<path d="M4504 697 c-5 -13 74 -345 96 -401 9 -26 13 -27 67 -24 l58 3 30 93
29 94 31 -94 30 -93 60 0 60 0 53 203 c30 112 51 210 48 218 -7 18 -119 20
-134 2 -5 -7 -15 -46 -22 -86 -8 -40 -16 -69 -20 -65 -4 4 -15 37 -25 73 -9
36 -22 71 -27 78 -6 6 -30 12 -53 12 -23 0 -47 -6 -53 -12 -5 -7 -18 -42 -27
-78 -10 -36 -21 -69 -25 -73 -4 -4 -12 25 -20 65 -7 40 -17 79 -22 86 -15 17
-127 16 -134 -1z"/>
<path d="M5180 694 c-81 -35 -114 -95 -114 -209 0 -115 34 -175 117 -210 115
-48 275 30 265 130 -3 29 -4 30 -64 33 -56 3 -62 1 -78 -23 -22 -34 -65 -31
-83 5 -16 32 -16 98 0 130 18 37 67 35 85 -3 13 -27 16 -28 75 -25 l62 3 -1
43 c-1 54 -27 90 -84 120 -52 26 -128 29 -180 6z"/>
<path d="M5550 688 c-51 -27 -80 -62 -83 -103 -2 -30 -2 -30 63 -35 57 -4 61
-6 32 -12 -19 -5 -49 -23 -68 -42 -31 -31 -34 -39 -34 -96 0 -59 2 -65 35 -96
39 -37 85 -50 142 -40 21 4 76 7 123 9 84 2 85 2 82 27 -2 14 -6 90 -10 171
-6 115 -11 151 -25 173 -42 64 -173 86 -257 44z"/>
<path d="M6204 699 c-50 -14 -110 -87 -123 -148 -14 -64 -14 -68 0 -132 13
-59 65 -124 116 -146 87 -36 204 -2 257 74 53 76 47 213 -12 292 -45 61 -147
87 -238 60z m120 -141 c10 -13 16 -43 16 -73 0 -63 -20 -95 -60 -95 -53 0 -76
81 -46 155 12 29 20 35 45 35 20 0 35 -8 45 -22z"/>
<path d="M6514 697 c-2 -7 -3 -105 -2 -217 l3 -205 70 0 70 0 5 139 5 140 27
7 c59 15 68 5 68 -80 0 -89 21 -143 69 -184 20 -17 27 -27 17 -27 -15 0 -66
-59 -66 -77 0 -16 43 -51 82 -68 84 -34 189 -13 247 51 50 53 53 73 49 329
l-3 200 -59 3 c-32 2 -63 -1 -69 -7 -7 -7 -17 -7 -30 1 -30 16 -123 5 -155
-19 -15 -11 -37 -34 -49 -52 l-22 -32 -3 53 -3 53 -37 3 c-20 2 -46 -2 -57 -7
-13 -7 -22 -8 -26 -1 -9 15 -125 13 -131 -3z m480 -123 c13 -5 16 -23 16 -90
0 -80 -1 -84 -24 -90 -39 -9 -64 4 -76 42 -14 40 -5 108 17 129 15 16 41 19
67 9z"/>
<path d="M5897 402 c-24 -26 -22 -87 3 -112 43 -43 124 -16 136 45 9 48 -26
85 -80 85 -29 0 -48 -6 -59 -18z"/>
</g>
</svg>
